<svg xmlns="http://www.w3.org/2000/svg" xmlns:xlink="http://www.w3.org/1999/xlink" version="1.1" width="535" height="409" viewBox="0 0 535 409" xml:space="preserve">


<g transform="matrix(1 0 0 1 505.8333 357.0064)" id="490763">
<g style="" vector-effect="non-scaling-stroke">
		<g transform="matrix(1 0 0 1 276.7308 387.6803)" id="e846ef3a-3b5e-448c-8d47-a4173376229f-83">
<path style="stroke: none; stroke-width: 1; stroke-dasharray: none; stroke-linecap: butt; stroke-dashoffset: 0; stroke-linejoin: miter; stroke-miterlimit: 4; is-custom-font: none; font-file-url: none; fill: rgb(230,230,230); fill-rule: nonzero; opacity: 1;" transform=" translate(-848.8689, -712.4993)" d="M 867.57258 741.80716 a 22.728 22.728 0 0 1 -21.947 -3.866 c -7.687 -6.452 -10.1 -17.081 -12.058 -26.924 l -5.8 -29.112 l 12.143 8.362 c 8.733 6.013 17.662 12.219 23.709 20.929 s 8.686 20.6 3.828 30.024" stroke-linecap="round"/>
</g>
		<g transform="matrix(1 0 0 1 286.6569 423.4732)" id="b0167a87-6d3c-4fe1-a02f-2e6974de103a-84">
<path style="stroke: none; stroke-width: 1; stroke-dasharray: none; stroke-linecap: butt; stroke-dashoffset: 0; stroke-linejoin: miter; stroke-miterlimit: 4; is-custom-font: none; font-file-url: none; fill: rgb(242,242,242); fill-rule: nonzero; opacity: 1;" transform=" translate(-858.7949, -748.2922)" d="M 866.53457 777.05314 c 1.229 -8.953 2.493 -18.02 1.631 -27.069 c -0.766 -8.036 -3.217 -15.885 -8.209 -22.321 a 37.13174 37.13174 0 0 0 -9.527 -8.633 c -0.953 -0.6 -1.829 0.909 -0.881 1.507 a 35.3 35.3 0 0 1 13.963 16.847 c 3.04 7.732 3.528 16.161 3 24.374 c -0.317 4.967 -0.988 9.9 -1.665 14.83 a 0.9 0.9 0 0 0 0.61 1.074 a 0.878 0.878 0 0 0 1.074 -0.61 Z" stroke-linecap="round"/>
</g>
		<g transform="matrix(1 0 0 1 -3.6318 49.5171)">
<path style="stroke: none; stroke-width: 1; stroke-dasharray: none; stroke-linecap: butt; stroke-dashoffset: 0; stroke-linejoin: miter; stroke-miterlimit: 4; is-custom-font: none; font-file-url: none; fill: rgb(255,255,255); fill-rule: nonzero; opacity: 1;" transform=" translate(-568.5062, -374.3361)" d="M 822.52338 628.35311 H 314.489 V 120.319 H 822.52338 Z" stroke-linecap="round"/>
</g>
		<g transform="matrix(1 0 0 1 -3.6318 49.5171)">
<path style="stroke: none; stroke-width: 1; stroke-dasharray: none; stroke-linecap: butt; stroke-dashoffset: 0; stroke-linejoin: miter; stroke-miterlimit: 4; is-custom-font: none; font-file-url: none; fill: rgb(229,229,229); fill-rule: nonzero; opacity: 1;" transform=" translate(-568.5062, -374.3361)" d="M 822.52338 628.35311 H 314.489 V 120.319 H 822.52338 Z M 321.99513 620.847 H 815.01722 V 127.82517 H 321.99513 Z" stroke-linecap="round"/>
</g>
		<g transform="matrix(1 0 0 1 50.3853 -121.5912)">
<rect style="stroke: none; stroke-width: 1; stroke-dasharray: none; stroke-linecap: butt; stroke-dashoffset: 0; stroke-linejoin: miter; stroke-miterlimit: 4; is-custom-font: none; font-file-url: none; fill: rgb(229,229,229); fill-rule: nonzero; opacity: 1;" x="-110" y="-3.42655" rx="0" ry="0" width="220" height="6.8531"/>
</g>
		<g transform="matrix(1 0 0 1 50.3853 -103.7732)">
<rect style="stroke: none; stroke-width: 1; stroke-dasharray: none; stroke-linecap: butt; stroke-dashoffset: 0; stroke-linejoin: miter; stroke-miterlimit: 4; is-custom-font: none; font-file-url: none; fill: rgb(229,229,229); fill-rule: nonzero; opacity: 1;" x="-110" y="-3.42655" rx="0" ry="0" width="220" height="6.8531"/>
</g>
		<g transform="matrix(1 0 0 1 50.3853 -85.955)">
<rect style="stroke: none; stroke-width: 1; stroke-dasharray: none; stroke-linecap: butt; stroke-dashoffset: 0; stroke-linejoin: miter; stroke-miterlimit: 4; is-custom-font: none; font-file-url: none; fill: rgb(229,229,229); fill-rule: nonzero; opacity: 1;" x="-110" y="-3.42655" rx="0" ry="0" width="220" height="6.8531"/>
</g>
		<g transform="matrix(1 0 0 1 50.3853 31.4091)">
<rect style="stroke: none; stroke-width: 1; stroke-dasharray: none; stroke-linecap: butt; stroke-dashoffset: 0; stroke-linejoin: miter; stroke-miterlimit: 4; is-custom-font: none; font-file-url: none; fill: rgb(229,229,229); fill-rule: nonzero; opacity: 1;" x="-110" y="-3.42655" rx="0" ry="0" width="220" height="6.8531"/>
</g>
		<g transform="matrix(1 0 0 1 50.3853 49.2272)">
<rect style="stroke: none; stroke-width: 1; stroke-dasharray: none; stroke-linecap: butt; stroke-dashoffset: 0; stroke-linejoin: miter; stroke-miterlimit: 4; is-custom-font: none; font-file-url: none; fill: rgb(229,229,229); fill-rule: nonzero; opacity: 1;" x="-110" y="-3.42655" rx="0" ry="0" width="220" height="6.8531"/>
</g>
		<g transform="matrix(1 0 0 1 50.3853 67.0452)">
<rect style="stroke: none; stroke-width: 1; stroke-dasharray: none; stroke-linecap: butt; stroke-dashoffset: 0; stroke-linejoin: miter; stroke-miterlimit: 4; is-custom-font: none; font-file-url: none; fill: rgb(229,229,229); fill-rule: nonzero; opacity: 1;" x="-110" y="-3.42655" rx="0" ry="0" width="220" height="6.8531"/>
</g>
		<g transform="matrix(1 0 0 1 50.3853 184.4093)">
<rect style="stroke: none; stroke-width: 1; stroke-dasharray: none; stroke-linecap: butt; stroke-dashoffset: 0; stroke-linejoin: miter; stroke-miterlimit: 4; is-custom-font: none; font-file-url: none; fill: rgb(229,229,229); fill-rule: nonzero; opacity: 1;" x="-110" y="-3.42655" rx="0" ry="0" width="220" height="6.8531"/>
</g>
		<g transform="matrix(1 0 0 1 50.3853 202.2275)">
<rect style="stroke: none; stroke-width: 1; stroke-dasharray: none; stroke-linecap: butt; stroke-dashoffset: 0; stroke-linejoin: miter; stroke-miterlimit: 4; is-custom-font: none; font-file-url: none; fill: rgb(229,229,229); fill-rule: nonzero; opacity: 1;" x="-110" y="-3.42655" rx="0" ry="0" width="220" height="6.8531"/>
</g>
		<g transform="matrix(1 0 0 1 50.3853 220.0455)">
<rect style="stroke: none; stroke-width: 1; stroke-dasharray: none; stroke-linecap: butt; stroke-dashoffset: 0; stroke-linejoin: miter; stroke-miterlimit: 4; is-custom-font: none; font-file-url: none; fill: rgb(229,229,229); fill-rule: nonzero; opacity: 1;" x="-110" y="-3.42655" rx="0" ry="0" width="220" height="6.8531"/>
</g>
		<g transform="matrix(1 0 0 1 -169.3948 -72.2365)">
<path style="stroke: none; stroke-width: 1; stroke-dasharray: none; stroke-linecap: butt; stroke-dashoffset: 0; stroke-linejoin: miter; stroke-miterlimit: 4; is-custom-font: none; font-file-url: none; fill: rgb(63,61,86); fill-rule: nonzero; opacity: 1;" transform=" translate(-402.7432, -252.5826)" d="M 424.452 254.40315 a 73.48452 73.48452 0 0 0 -11.72491 -4.93423 l -0.51555 -5.70369 l -20.91078 -2.25289 l -2.65757 7.29025 l -7.5044 2.81614 a 3.65253 3.65253 0 0 0 -0.76152 0.39664 h -0.00814 a 3.71836 3.71836 0 0 0 -1.58656 2.475 a 3.80137 3.80137 0 0 0 0.05578 1.49137 l 0.39664 1.62622 c 0.571 0.34111 1.15816 0.66638 1.745 0.97572 l 0.373 0.19043 c 0.8568 0.44423 1.72949 0.86465 2.62581 1.25335 c 0.18243 0.07935 0.38075 0.15866 0.56319 0.238 c 0.01588 0.00794 0.02363 0.00794 0.03951 0.01588 c 0.42066 0.17455 0.84093 0.34111 1.26933 0.49977 a 41.69109 41.69109 0 0 0 4.29952 1.38031 a 44.21436 44.21436 0 0 0 11.39954 1.49137 c 1.40412 0 2.79236 -0.06348 4.16472 -0.19832 a 44.03857 44.03857 0 0 0 9.2339 -1.86419 c 0.00775 0 0.01588 -0.00794 0.02363 -0.00794 a 43.34123 43.34123 0 0 0 5.54522 -2.19741 c 0.00774 -0.00794 0.02363 -0.00794 0.03176 -0.01583 c 0.40439 -0.19043 0.79328 -0.39664 1.18992 -0.595 l 0.19019 -0.09524 c 0.31723 -0.16656 0.63485 -0.33316 0.95209 -0.50766 c 0.79328 -0.43635 1.57068 -0.89641 2.33994 -1.38824 c 0.21421 -0.127 0.42066 -0.2618 0.63486 -0.40458 c 0.30136 -0.19833 0.60271 -0.40459 0.89632 -0.61879 C 426.01457 255.28368 425.2453 254.83151 424.452 254.40315 Z" stroke-linecap="round"/>
</g>
		<g transform="matrix(1 0 0 1 -191.6694 -68.4248)">
<path style="stroke: none; stroke-width: 1; stroke-dasharray: none; stroke-linecap: butt; stroke-dashoffset: 0; stroke-linejoin: miter; stroke-miterlimit: 4; is-custom-font: none; font-file-url: none; fill: rgb(63,61,86); fill-rule: nonzero; opacity: 1;" transform=" translate(-380.4686, -256.3943)" d="M 385.20825 257.91738 l -1.30884 -5.90995 h -3.41909 a 0.81809 0.81809 0 0 0 -0.103 0.00794 h -0.00814 a 7.40924 7.40924 0 0 0 -3.44271 1.18992 a 7.62539 7.62539 0 0 0 -1.84027 1.65 c 1.01523 0.76946 2.07035 1.48343 3.15724 2.16564 l 0.04764 0.02377 c 0.3091 0.19043 0.62673 0.38081 0.944 0.56325 c 0.571 0.34111 1.15816 0.66638 1.745 0.97572 l 0.373 0.19043 c 0.8568 0.44423 1.72949 0.86465 2.62581 1.25335 c 0.18243 0.07935 0.38075 0.15866 0.56319 0.238 c 0.01588 0.00794 0.02363 0.00794 0.03951 0.01588 c 0.42066 0.17455 0.84093 0.34111 1.26933 0.49977 Z" stroke-linecap="round"/>
</g>
		<g transform="matrix(1 0 0 1 -171.2025 -101.9728)">
<circle style="stroke: none; stroke-width: 1; stroke-dasharray: none; stroke-linecap: butt; stroke-dashoffset: 0; stroke-linejoin: miter; stroke-miterlimit: 4; is-custom-font: none; font-file-url: none; fill: rgb(255,184,184); fill-rule: nonzero; opacity: 1;" cx="0" cy="0" r="15.06012"/>
</g>
		<g transform="matrix(1 0 0 1 -171.3453 -110.9323)">
<path style="stroke: none; stroke-width: 1; stroke-dasharray: none; stroke-linecap: butt; stroke-dashoffset: 0; stroke-linejoin: miter; stroke-miterlimit: 4; is-custom-font: none; font-file-url: none; fill: rgb(47,46,65); fill-rule: nonzero; opacity: 1;" transform=" translate(-400.7928, -213.8867)" d="M 390.8243 215.51076 c 1.559 1.84494 4.19733 2.36555 6.6311 2.579 a 62.45441 62.45441 0 0 0 16.96025 -1.3849 c 0.34473 3.34141 -0.59521 6.94426 1.3729 9.69292 a 44.99776 44.99776 0 0 0 1.5988 -10.20084 a 9.76388 9.76388 0 0 0 -0.5651 -4.369 a 4.01823 4.01823 0 0 0 -3.423 -2.52361 a 8.57906 8.57906 0 0 1 3.82678 -1.636 l -4.78192 -2.4031 l 1.228 -1.26072 l -8.6574 -0.52978 l 2.5075 -1.593 a 54.37251 54.37251 0 0 0 -11.39121 -0.35958 a 9.77843 9.77843 0 0 0 -5.03814 1.40046 c -1.42943 1.02218 -2.25538 3.05378 -1.368 4.55453 a 6.61308 6.61308 0 0 0 -5.03977 3.99885 a 10.676 10.676 0 0 0 -0.38256 5.13155 a 36.375 36.375 0 0 0 1.90723 8.06855 Z" stroke-linecap="round"/>
</g>
		<g transform="matrix(1 0 0 1 -170.5878 -103.7716)">
<path style="stroke: none; stroke-width: 1; stroke-dasharray: none; stroke-linecap: butt; stroke-dashoffset: 0; stroke-linejoin: miter; stroke-miterlimit: 4; is-custom-font: none; font-file-url: none; fill: rgb(63,61,86); fill-rule: nonzero; opacity: 1;" transform=" translate(-401.5503, -221.0473)" d="M 443.28431 206.52068 a 44.19307 44.19307 0 1 0 -76.36917 41.98046 c 0.39664 0.49977 0.80916 0.99954 1.22982 1.48343 c 0.03176 0.03172 0.05539 0.06348 0.08715 0.09519 a 42.86334 42.86334 0 0 0 3.292 3.39522 c 0.30174 0.27768 0.619 0.56325 0.93621 0.833 c 0.60271 0.53943 1.22169 1.055 1.86429 1.54686 c 0.25371 0.19832 0.49967 0.39664 0.76152 0.58707 c 1.01523 0.76946 2.07035 1.48343 3.15724 2.16564 l 0.04764 0.02378 c 0.3091 0.19042 0.62673 0.3808 0.944 0.56324 c 0.571 0.34111 1.15816 0.66638 1.745 0.97572 l 0.373 0.19043 c 0.8568 0.44424 1.72949 0.86465 2.62581 1.25335 c 0.18243 0.07936 0.38075 0.15867 0.56319 0.238 c 0.01588 0.00794 0.02363 0.00794 0.03951 0.01589 c 0.42066 0.17454 0.84093 0.3411 1.26933 0.49977 a 41.69345 41.69345 0 0 0 4.29952 1.3803 a 44.21436 44.21436 0 0 0 11.39954 1.49137 c 1.40412 0 2.79236 -0.06348 4.16472 -0.19832 a 44.03857 44.03857 0 0 0 9.2339 -1.86419 c 0.00775 0 0.01588 -0.00794 0.02363 -0.00794 a 43.33976 43.33976 0 0 0 5.54522 -2.19741 c 0.00774 -0.00794 0.02363 -0.00794 0.03176 -0.01583 c 0.40439 -0.19043 0.79328 -0.39664 1.18992 -0.595 l 0.19019 -0.09524 c 0.31723 -0.16656 0.63485 -0.33316 0.95209 -0.50766 c 0.79328 -0.43634 1.57068 -0.89641 2.33994 -1.38824 c 0.21421 -0.12695 0.42066 -0.2618 0.63486 -0.40458 c 0.30136 -0.19832 0.60271 -0.40458 0.89632 -0.61879 c 0.3885 -0.26968 0.7774 -0.54736 1.15816 -0.83293 c 0.11891 -0.08725 0.246 -0.1745 0.36487 -0.26969 a 44.17746 44.17746 0 0 0 15.00882 -49.72289 Z M 426.816 254.31586 c -0.26184 0.20626 -0.53144 0.40458 -0.80141 0.58706 c -0.26185 0.19832 -0.52331 0.3887 -0.79329 0.5632 c -0.23008 0.16661 -0.46016 0.32528 -0.698 0.476 l -0.07127 0.0476 c -0.17469 0.119 -0.349 0.23 -0.52369 0.3411 q -0.98772 0.6187 -1.99908 1.18992 l -0.2142 0.119 c -0.30136 0.16661 -0.60271 0.32528 -0.90407 0.48394 c -0.03989 0.02378 -0.08754 0.03966 -0.127 0.06343 l -0.04765 0.02382 c -0.38076 0.19832 -0.76965 0.3887 -1.15816 0.57114 a 38.91126 38.91126 0 0 1 -4.62489 1.87218 c -0.20645 0.07137 -0.41252 0.14279 -0.61858 0.20621 a 41.6098 41.6098 0 0 1 -8.742 1.777 c -1.30108 0.119 -2.618 0.18244 -3.94277 0.18244 a 41.21052 41.21052 0 0 1 -10.78056 -1.41206 a 39.1725 39.1725 0 0 1 -5.29113 -1.79278 c -0.08754 -0.0397 -0.18282 -0.07141 -0.27 -0.11107 c -0.0949 -0.03965 -0.18244 -0.07141 -0.2696 -0.11107 c -0.09528 -0.03965 -0.18244 -0.07931 -0.27772 -0.1269 c -0.74564 -0.32527 -1.48353 -0.68226 -2.20515 -1.05508 l -0.349 -0.18244 c -0.88082 -0.46011 -1.74537 -0.95194 -2.5863 -1.47554 c -0.246 -0.15072 -0.49967 -0.30934 -0.73789 -0.476 c -0.06313 -0.03965 -0.11891 -0.0793 -0.18244 -0.119 c -0.56319 -0.37282 -1.12639 -0.76152 -1.67371 -1.1661 c -0.37263 -0.27767 -0.74564 -0.5553 -1.11052 -0.84087 c -0.61084 -0.46012 -1.19805 -0.95195 -1.769 -1.45966 c -0.30135 -0.25386 -0.595 -0.53149 -0.88043 -0.79328 a 40.306 40.306 0 0 1 -3.189 -3.3 c -0.33312 -0.38081 -0.65849 -0.76157 -0.968 -1.15821 a 3.02208 3.02208 0 0 1 -0.19832 -0.24591 a 41.77344 41.77344 0 1 1 58.00479 7.322 Z" stroke-linecap="round"/>
</g>
		<g transform="matrix(1 0 0 1 -170.5876 49.2286)">
<path style="stroke: none; stroke-width: 1; stroke-dasharray: none; stroke-linecap: butt; stroke-dashoffset: 0; stroke-linejoin: miter; stroke-miterlimit: 4; is-custom-font: none; font-file-url: none; fill: rgb(255,255,255); fill-rule: nonzero; opacity: 1;" transform=" translate(-401.5504, -374.0477)" d="M 443.28464 359.52105 a 44.19305 44.19305 0 1 0 -76.36916 41.98041 c 0.39664 0.49977 0.80916 0.99954 1.22943 1.48343 c 0.03176 0.03172 0.05539 0.06348 0.08715 0.09519 a 42.94478 42.94478 0 0 0 3.29243 3.39527 c 0.30135 0.27763 0.61859 0.5632 0.93582 0.83293 c 0.60309 0.53943 1.22168 1.05508 1.86429 1.54691 a 43.45061 43.45061 0 0 0 3.91876 2.75266 l 0.04764 0.02382 c 0.88043 0.54737 1.77675 1.055 2.68933 1.539 l 0.37263 0.19038 c 0.8568 0.44424 1.72949 0.86465 2.6258 1.25335 c 0.18244 0.07936 0.38076 0.15867 0.5632 0.238 c 0.01588 0.00794 0.024 0.00794 0.0399 0.01584 a 42.929 42.929 0 0 0 5.56885 1.88007 a 44.21134 44.21134 0 0 0 11.39915 1.49137 c 1.40412 0 2.79236 -0.06343 4.16472 -0.19832 a 44.03355 44.03355 0 0 0 9.2339 -1.86419 c 0.00813 0 0.01588 -0.00794 0.02363 -0.00794 a 43.31709 43.31709 0 0 0 5.54522 -2.19741 c 0.00774 -0.00789 0.024 -0.00789 0.03176 -0.01583 c 0.40439 -0.19038 0.79328 -0.39664 1.18992 -0.595 l 0.19057 -0.09519 c 0.31724 -0.1666 0.63447 -0.33321 0.95171 -0.50771 c 0.79328 -0.43629 1.57068 -0.89641 2.34033 -1.38824 c 0.2142 -0.127 0.42027 -0.2618 0.63447 -0.40458 c 0.698 -0.46012 1.38824 -0.952 2.05447 -1.45172 c 0.11931 -0.08725 0.246 -0.1745 0.36527 -0.26969 a 44.17946 44.17946 0 0 0 15.00881 -49.72284 Z" stroke-linecap="round"/>
</g>
		<g transform="matrix(1 0 0 1 -156.0046 60.8211)" id="f2095780-2301-4cc1-9693-3d089d317ca1">
<circle style="stroke: none; stroke-width: 1; stroke-dasharray: none; stroke-linecap: butt; stroke-dashoffset: 0; stroke-linejoin: miter; stroke-miterlimit: 4; is-custom-font: none; font-file-url: none; fill: rgb(47,46,65); fill-rule: nonzero; opacity: 1;" cx="0" cy="0" r="6.6231"/>
</g>
		<g transform="matrix(1 0 0 1 -153.1051 58.7699)" id="fe36a822-bf42-420c-ba8a-fcca90365ca6-85">
<path style="stroke: none; stroke-width: 1; stroke-dasharray: none; stroke-linecap: butt; stroke-dashoffset: 0; stroke-linejoin: miter; stroke-miterlimit: 4; is-custom-font: none; font-file-url: none; fill: rgb(47,46,65); fill-rule: nonzero; opacity: 1;" transform=" translate(-419.033, -383.589)" d="M 417.97869 379.19948 a 6.6239 6.6239 0 0 1 5.83059 9.76688 a 6.6215 6.6215 0 1 0 -11.0012 -7.276 a 6.60732 6.60732 0 0 1 5.17138 -2.49091 Z" stroke-linecap="round"/>
</g>
		<g transform="matrix(1 0 0 1 -168.3813 41.3508)" id="e26e4994-e49f-47aa-919e-dc7dee2cb7c3">
<circle style="stroke: none; stroke-width: 1; stroke-dasharray: none; stroke-linecap: butt; stroke-dashoffset: 0; stroke-linejoin: miter; stroke-miterlimit: 4; is-custom-font: none; font-file-url: none; fill: rgb(47,46,65); fill-rule: nonzero; opacity: 1;" cx="0" cy="0" r="19.45601"/>
</g>
		<g transform="matrix(1 0 0 1 -173.1475 39.06)" id="ac420ffb-80fa-461b-bc18-228b12874f63-86">
<path style="stroke: none; stroke-width: 1; stroke-dasharray: none; stroke-linecap: butt; stroke-dashoffset: 0; stroke-linejoin: miter; stroke-miterlimit: 4; is-custom-font: none; font-file-url: none; fill: rgb(47,46,65); fill-rule: nonzero; opacity: 1;" transform=" translate(-398.9905, -363.879)" d="M 388.48684 354.09851 a 19.45283 19.45283 0 0 1 26.9636 -2.04033 c -0.15866 -0.1515 -0.31733 -0.30383 -0.48151 -0.45058 a 19.456 19.456 0 0 0 -25.96422 28.98283 q 0.05542 0.0496 0.11117 0.09882 c 0.165 0.14676 0.33476 0.28557 0.50374 0.426 a 19.45283 19.45283 0 0 1 -1.132 -27.01677 Z" stroke-linecap="round"/>
</g>
		<g transform="matrix(1 0 0 1 -168.5463 48.1112)" id="a12696bc-31d6-40e2-aafc-0c11595f0891">
<circle style="stroke: none; stroke-width: 1; stroke-dasharray: none; stroke-linecap: butt; stroke-dashoffset: 0; stroke-linejoin: miter; stroke-miterlimit: 4; is-custom-font: none; font-file-url: none; fill: rgb(160,97,106); fill-rule: nonzero; opacity: 1;" cx="0" cy="0" r="12.53066"/>
</g>
		<g transform="matrix(1 0 0 1 -174.6179 76.6935)">
<path style="stroke: none; stroke-width: 1; stroke-dasharray: none; stroke-linecap: butt; stroke-dashoffset: 0; stroke-linejoin: miter; stroke-miterlimit: 4; is-custom-font: none; font-file-url: none; fill: rgb(108,99,255); fill-rule: nonzero; opacity: 1;" transform=" translate(-397.5201, -401.5125)" d="M 426.0149 405.57894 v 4.20438 c -0.76965 0.49183 -1.54705 0.95194 -2.34033 1.38824 c -0.31724 0.1745 -0.63447 0.3411 -0.95171 0.50771 l -0.19057 0.09519 c -0.39664 0.19832 -0.78553 0.40458 -1.18992 0.595 c -0.00775 0.00794 -0.024 0.00794 -0.03176 0.01583 a 43.31709 43.31709 0 0 1 -5.54522 2.19741 c -0.00775 0 -0.0155 0.00794 -0.02363 0.00794 a 44.03355 44.03355 0 0 1 -9.2339 1.86419 c -1.37236 0.13489 -2.7606 0.19832 -4.16472 0.19832 a 44.2114 44.2114 0 0 1 -11.39915 -1.49137 a 42.9291 42.9291 0 0 1 -5.56885 -1.88008 c -0.01588 -0.00789 -0.024 -0.00789 -0.0399 -0.01583 c -0.18244 -0.07936 -0.38076 -0.15866 -0.5632 -0.238 c -0.89631 -0.3887 -1.769 -0.80911 -2.6258 -1.25335 l -0.37263 -0.19038 c -0.91258 -0.48394 -1.80889 -0.9916 -2.68933 -1.539 l -0.04764 -0.02382 a 43.45061 43.45061 0 0 1 -3.91876 -2.75266 c -0.64261 -0.49183 -1.26119 -1.00748 -1.86429 -1.54691 c -0.31723 -0.26973 -0.63447 -0.5553 -0.93582 -0.83293 a 42.9465 42.9465 0 0 1 -3.29243 -3.39527 a 16.04862 16.04862 0 0 1 0.6031 -2.43538 l 0.00774 -0.00794 a 3.56229 3.56229 0 0 1 0.16656 -0.39664 a 3.16442 3.16442 0 0 1 0.15068 -0.33316 c 1.42 -2.65747 3.99042 -3.31591 7.17942 -3.45869 c 1.80077 -0.07936 3.79171 0.00794 5.89422 -0.01588 c 1.11051 -0.00795 2.26054 -0.0476 3.411 -0.15073 c 7.25844 -0.65839 5.94186 -4.94212 6.26684 -7.2506 c 0.32537 -2.237 2.34034 -0.3014 2.47513 -0.1745 l 0.00775 0.00794 a 25.60037 25.60037 0 0 0 13.16854 2.30843 c 0.7774 -0.09519 1.5548 -0.15073 2.3322 -0.1745 c 2.04672 -0.02382 1.60244 0.5632 0.8967 1.04714 a 8.87215 8.87215 0 0 1 -1.071 0.6029 s -0.32537 1.9832 -0.65848 4.95006 c -0.31724 2.83991 5.12456 4.17267 5.57659 4.27575 a 0.04827 0.04827 0 0 0 0.03176 0.00794 a 10.92623 10.92623 0 0 1 6.03715 0.15867 h 0.00775 A 7.15379 7.15379 0 0 1 426.0149 405.57894 Z" stroke-linecap="round"/>
</g>
		<g transform="matrix(1 0 0 1 -190.9662 78.566)">
<path style="stroke: none; stroke-width: 1; stroke-dasharray: none; stroke-linecap: butt; stroke-dashoffset: 0; stroke-linejoin: miter; stroke-miterlimit: 4; is-custom-font: none; font-file-url: none; fill: rgb(47,46,65); fill-rule: nonzero; opacity: 1;" transform=" translate(-381.1718, -403.385)" d="M 385.45416 410.67973 c 0 0.587 -0.0155 1.15027 -0.03951 1.68175 c -0.00775 0.31733 -0.02363 0.62667 -0.03951 0.92018 c -0.01588 -0.00789 -0.024 -0.00789 -0.0399 -0.01583 c -0.18244 -0.07936 -0.38076 -0.15866 -0.5632 -0.238 c -0.89631 -0.3887 -1.769 -0.80911 -2.6258 -1.25335 l -0.37263 -0.19038 c -0.91258 -0.48394 -1.80889 -0.9916 -2.68933 -1.539 c 0.02363 -0.27767 0.06353 -0.5553 0.103 -0.833 c 0.08715 -0.61079 0.15881 -1.22958 0.20645 -1.84037 a 25.53057 25.53057 0 0 0 -2.26093 -12.50211 v -0.00794 c -0.15881 -0.31734 -0.25371 -0.49183 -0.25371 -0.49183 s 2.30819 -1.98321 5.60022 0 a 1.98132 1.98132 0 0 1 0.54771 0.47595 C 385.01026 397.186 385.54944 405.05535 385.45416 410.67973 Z" stroke-linecap="round"/>
</g>
		<g transform="matrix(1 0 0 1 -153.705 82.1323)">
<path style="stroke: none; stroke-width: 1; stroke-dasharray: none; stroke-linecap: butt; stroke-dashoffset: 0; stroke-linejoin: miter; stroke-miterlimit: 4; is-custom-font: none; font-file-url: none; fill: rgb(47,46,65); fill-rule: nonzero; opacity: 1;" transform=" translate(-418.433, -406.9513)" d="M 421.47716 409.60088 c -0.03176 0.88847 -0.0794 1.81659 -0.13479 2.7606 v 0.00794 c -0.00775 0.00794 -0.024 0.00794 -0.03176 0.01583 a 43.31709 43.31709 0 0 1 -5.54522 2.19741 c -0.00775 0 -0.0155 0.00794 -0.02363 0.00794 l -0.08715 -2.22912 l -0.00814 -0.29351 l -0.42027 -10.85208 a 1.82075 1.82075 0 0 1 1.81665 -1.90389 h 4.02179 c 0.19832 0 0.34125 0.40458 0.43654 1.13439 v 0.00794 A 68.744 68.744 0 0 1 421.47716 409.60088 Z" stroke-linecap="round"/>
</g>
		<g transform="matrix(1 0 0 1 -168.3806 38.7147)" id="e6a5f050-bb79-4898-9f1b-a16710d0980e-87">
<path style="stroke: none; stroke-width: 1; stroke-dasharray: none; stroke-linecap: butt; stroke-dashoffset: 0; stroke-linejoin: miter; stroke-miterlimit: 4; is-custom-font: none; font-file-url: none; fill: rgb(47,46,65); fill-rule: nonzero; opacity: 1;" transform=" translate(-403.7575, -363.5338)" d="M 392.87448 357.26684 v 12.53383 h 2.90183 l 3.69275 -3.95689 l -0.4942 3.95689 h 12.82733 l -0.79328 -3.95689 l 1.58656 3.95689 h 2.04509 V 357.26684 Z" stroke-linecap="round"/>
</g>
		<g transform="matrix(1 0 0 1 -181.242 45.4735)" id="bcc9b546-fa99-40e5-8b80-3cc98cb6450e">
<ellipse style="stroke: none; stroke-width: 1; stroke-dasharray: none; stroke-linecap: butt; stroke-dashoffset: 0; stroke-linejoin: miter; stroke-miterlimit: 4; is-custom-font: none; font-file-url: none; fill: rgb(160,97,106); fill-rule: nonzero; opacity: 1;" cx="0" cy="0" rx="0.98922" ry="1.81344"/>
</g>
		<g transform="matrix(1 0 0 1 -155.8499 45.4735)" id="aac24dc1-8688-403d-884a-09279027a7ab">
<ellipse style="stroke: none; stroke-width: 1; stroke-dasharray: none; stroke-linecap: butt; stroke-dashoffset: 0; stroke-linejoin: miter; stroke-miterlimit: 4; is-custom-font: none; font-file-url: none; fill: rgb(160,97,106); fill-rule: nonzero; opacity: 1;" cx="0" cy="0" rx="0.98922" ry="1.81344"/>
</g>
		<g transform="matrix(1 0 0 1 -146.4247 82.4892)">
<path style="stroke: none; stroke-width: 1; stroke-dasharray: none; stroke-linecap: butt; stroke-dashoffset: 0; stroke-linejoin: miter; stroke-miterlimit: 4; is-custom-font: none; font-file-url: none; fill: rgb(108,99,255); fill-rule: nonzero; opacity: 1;" transform=" translate(-425.7133, -407.3083)" d="M 428.70384 407.927 c -0.66623 0.49977 -1.35647 0.9916 -2.05447 1.45172 c -0.2142 0.14278 -0.42027 0.27763 -0.63447 0.40458 c -0.76965 0.49183 -1.54705 0.95194 -2.34033 1.38824 c -0.31724 0.1745 -0.63447 0.3411 -0.95171 0.50771 v -8.742 s 1.26894 1.01542 3.292 2.70507 c 0.25371 0.2142 0.51556 0.43634 0.79328 0.67431 C 427.395 406.80851 428.02987 407.34794 428.70384 407.927 Z" stroke-linecap="round"/>
</g>
		<g transform="matrix(1 0 0 1 -170.5876 49.2286)">
<path style="stroke: none; stroke-width: 1; stroke-dasharray: none; stroke-linecap: butt; stroke-dashoffset: 0; stroke-linejoin: miter; stroke-miterlimit: 4; is-custom-font: none; font-file-url: none; fill: rgb(63,61,86); fill-rule: nonzero; opacity: 1;" transform=" translate(-401.5504, -374.0477)" d="M 443.28464 359.52105 a 44.19305 44.19305 0 1 0 -76.36916 41.98041 c 0.39664 0.49977 0.80916 0.99954 1.22943 1.48343 c 0.03176 0.03172 0.05539 0.06348 0.08715 0.09519 a 42.94478 42.94478 0 0 0 3.29243 3.39527 c 0.30135 0.27763 0.61859 0.5632 0.93582 0.83293 c 0.60309 0.53943 1.22168 1.05508 1.86429 1.54691 a 43.45061 43.45061 0 0 0 3.91876 2.75266 l 0.04764 0.02382 c 0.88043 0.54737 1.77675 1.055 2.68933 1.539 l 0.37263 0.19038 c 0.8568 0.44424 1.72949 0.86465 2.6258 1.25335 c 0.18244 0.07936 0.38076 0.15867 0.5632 0.238 c 0.01588 0.00794 0.024 0.00794 0.0399 0.01584 a 42.929 42.929 0 0 0 5.56885 1.88007 a 44.21134 44.21134 0 0 0 11.39915 1.49137 c 1.40412 0 2.79236 -0.06343 4.16472 -0.19832 a 44.03355 44.03355 0 0 0 9.2339 -1.86419 c 0.00813 0 0.01588 -0.00794 0.02363 -0.00794 a 43.31709 43.31709 0 0 0 5.54522 -2.19741 c 0.00774 -0.00789 0.024 -0.00789 0.03176 -0.01583 c 0.40439 -0.19038 0.79328 -0.39664 1.18992 -0.595 l 0.19057 -0.09519 c 0.31724 -0.1666 0.63447 -0.33321 0.95171 -0.50771 c 0.79328 -0.43629 1.57068 -0.89641 2.34033 -1.38824 c 0.2142 -0.127 0.42027 -0.2618 0.63447 -0.40458 c 0.698 -0.46012 1.38824 -0.952 2.05447 -1.45172 c 0.11931 -0.08725 0.246 -0.1745 0.36527 -0.26969 a 44.17946 44.17946 0 0 0 15.00881 -49.72284 Z m -16.46871 47.79518 c -0.26185 0.20626 -0.53144 0.40458 -0.801 0.587 c -0.26184 0.19832 -0.52369 0.3887 -0.79328 0.56319 c -0.23008 0.16661 -0.46016 0.32528 -0.69838 0.476 c -0.19832 0.13485 -0.39664 0.2618 -0.595 0.3887 q -0.98715 0.61878 -1.9987 1.18992 l -0.21459 0.119 c -0.30135 0.16656 -0.6027 0.32523 -0.90406 0.48389 c -0.03989 0.02378 -0.08754 0.03966 -0.127 0.06348 l -0.04764 0.02377 c -0.38076 0.19832 -0.76927 0.3887 -1.15816 0.57119 a 38.89278 38.89278 0 0 1 -4.62489 1.87213 c -0.20607 0.07137 -0.41252 0.14279 -0.61859 0.20626 a 41.612 41.612 0 0 1 -8.742 1.77694 c -1.30109 0.119 -2.61806 0.18244 -3.94277 0.18244 a 41.21276 41.21276 0 0 1 -10.78057 -1.412 a 39.18138 39.18138 0 0 1 -5.29112 -1.79282 c -0.18244 -0.07142 -0.36488 -0.15073 -0.53957 -0.22215 c -0.0949 -0.03965 -0.18244 -0.07931 -0.27772 -0.1269 c -0.74564 -0.32527 -1.48314 -0.68221 -2.20515 -1.05508 l -0.349 -0.18244 c -0.88043 -0.46011 -1.74537 -0.95194 -2.5863 -1.47549 c -0.3091 -0.19043 -0.61859 -0.38875 -0.91994 -0.595 c -0.95209 -0.62672 -1.88017 -1.301 -2.78462 -2.007 c -0.61084 -0.46012 -1.19767 -0.952 -1.769 -1.45966 c -0.30135 -0.25381 -0.595 -0.53148 -0.88043 -0.79328 a 40.36294 40.36294 0 0 1 -3.189 -3.3 c -0.33311 -0.38076 -0.65848 -0.76156 -0.968 -1.1582 a 3.01537 3.01537 0 0 1 -0.19832 -0.24592 a 41.77342 41.77342 0 1 1 58.00479 7.322 Z" stroke-linecap="round"/>
</g>
		<g transform="matrix(1 0 0 1 -170.3386 204.7763)">
<circle style="stroke: none; stroke-width: 1; stroke-dasharray: none; stroke-linecap: butt; stroke-dashoffset: 0; stroke-linejoin: miter; stroke-miterlimit: 4; is-custom-font: none; font-file-url: none; fill: rgb(47,46,65); fill-rule: nonzero; opacity: 1;" cx="0" cy="0" r="17.31454"/>
</g>
		<g transform="matrix(0.7071 -0.7071 0.7071 0.7071 -187.6531 191.6412)">
<ellipse style="stroke: none; stroke-width: 1; stroke-dasharray: none; stroke-linecap: butt; stroke-dashoffset: 0; stroke-linejoin: miter; stroke-miterlimit: 4; is-custom-font: none; font-file-url: none; fill: rgb(47,46,65); fill-rule: nonzero; opacity: 1;" cx="0" cy="0" rx="7.16464" ry="5.37348"/>
</g>
		<g transform="matrix(0.3928 -0.9196 0.9196 0.3928 -158.8809 187.1278)">
<ellipse style="stroke: none; stroke-width: 1; stroke-dasharray: none; stroke-linecap: butt; stroke-dashoffset: 0; stroke-linejoin: miter; stroke-miterlimit: 4; is-custom-font: none; font-file-url: none; fill: rgb(47,46,65); fill-rule: nonzero; opacity: 1;" cx="0" cy="0" rx="5.37348" ry="7.16464"/>
</g>
		<g transform="matrix(1 0 0 1 -157.6566 238.2482)">
<path style="stroke: none; stroke-width: 1; stroke-dasharray: none; stroke-linecap: butt; stroke-dashoffset: 0; stroke-linejoin: miter; stroke-miterlimit: 4; is-custom-font: none; font-file-url: none; fill: rgb(202,202,202); fill-rule: nonzero; opacity: 1;" transform=" translate(-414.4815, -563.0672)" d="M 422.51029 563.181 l -2.04 -3.21 a 8.00714 8.00714 0 0 0 -14.64014 6.49 l 0.58008 2.08 l 0.66016 2.36 a 45.21049 45.21049 0 0 0 7.87988 -1.72 a 0.034 0.034 0 0 0 0.02 -0.01 a 42.14842 42.14842 0 0 0 5.55029 -2.2 c 0.00977 -0.01 0.01953 -0.01 0.02979 -0.02 c 0.3999 -0.19 0.79 -0.39 1.18994 -0.59 a 1.735 1.735 0 0 0 0.18994 -0.1 c 0.31982 -0.16 0.64014 -0.33 0.95019 -0.5 q 0.47974 -0.25506 0.92969 -0.54 Z" stroke-linecap="round"/>
</g>
		<g transform="matrix(1 0 0 1 -169.7894 208.9097)">
<circle style="stroke: none; stroke-width: 1; stroke-dasharray: none; stroke-linecap: butt; stroke-dashoffset: 0; stroke-linejoin: miter; stroke-miterlimit: 4; is-custom-font: none; font-file-url: none; fill: rgb(255,182,182); fill-rule: nonzero; opacity: 1;" cx="0" cy="0" r="14.69467"/>
</g>
		<g transform="matrix(1 0 0 1 -168.5918 237.347)">
<path style="stroke: none; stroke-width: 1; stroke-dasharray: none; stroke-linecap: butt; stroke-dashoffset: 0; stroke-linejoin: miter; stroke-miterlimit: 4; is-custom-font: none; font-file-url: none; fill: rgb(202,202,202); fill-rule: nonzero; opacity: 1;" transform=" translate(-403.5463, -562.166)" d="M 423.57035 562.551 a 31.78536 31.78536 0 0 0 -5.97022 -7.24 a 8.72893 8.72893 0 0 0 -5.81982 -2.22 h -20.7002 a 8.7244 8.7244 0 0 0 -8.71 9.28 a 8.93713 8.93713 0 0 0 0.36035 1.98 a 9.39745 9.39745 0 0 0 0.54981 1.36 l 1.02 2.04 c 0.08007 0.03 0.16015 0.07 0.23974 0.1 c 0.02 0.01 0.03028 0.01 0.04 0.02 c 0.41992 0.17 0.84033 0.34 1.27 0.5 a 41.34909 41.34909 0 0 0 4.30029 1.38 a 43.32755 43.32755 0 0 0 7.15967 1.29 c 1.41016 0.13 2.82031 0.2 4.24024 0.2 c 1.41015 0 2.79 -0.07 4.16992 -0.2 c 0.45019 -0.04 0.8999 -0.09 1.3501 -0.14 a 45.21049 45.21049 0 0 0 7.87988 -1.72 a 0.034 0.034 0 0 0 0.02 -0.01 a 42.14842 42.14842 0 0 0 5.55029 -2.2 c 0.00977 -0.01 0.01953 -0.01 0.02979 -0.02 c 0.3999 -0.19 0.79 -0.39 1.18994 -0.59 a 1.735 1.735 0 0 0 0.18994 -0.1 c 0.31982 -0.16 0.64014 -0.33 0.95019 -0.5 q 0.47974 -0.25506 0.92969 -0.54 c 0.32031 -0.17 0.62012 -0.36 0.93018 -0.55 C 424.36038 563.921 423.97025 563.221 423.57035 562.551 Z" stroke-linecap="round"/>
</g>
		<g transform="matrix(1 0 0 1 -182.3415 238.2091)">
<path style="stroke: none; stroke-width: 1; stroke-dasharray: none; stroke-linecap: butt; stroke-dashoffset: 0; stroke-linejoin: miter; stroke-miterlimit: 4; is-custom-font: none; font-file-url: none; fill: rgb(202,202,202); fill-rule: nonzero; opacity: 1;" transform=" translate(-389.7965, -563.0282)" d="M 394.83011 555.771 a 8.00082 8.00082 0 0 0 -10.61963 3.81995 l -1.84033 2.78 l -0.87988 1.33 l -1.33985 2.02 c 0.27979 0.15 0.54981 0.30005 0.83008 0.45 l 0.36963 0.19 c 0.86035 0.44 1.73 0.86 2.63037 1.25 c 0.09961 0.05 0.21 0.09 0.31983 0.14 c 0.08007 0.03 0.16015 0.07 0.23974 0.1 c 0.02 0.01 0.03028 0.01 0.04 0.02 c 0.41992 0.17 0.84033 0.34 1.27 0.5 a 41.34909 41.34909 0 0 0 4.30029 1.38 a 43.32755 43.32755 0 0 0 7.15967 1.29 l 0.7002 -2.37 l 0.68017 -2.26 A 8.01285 8.01285 0 0 0 394.83011 555.771 Z" stroke-linecap="round"/>
</g>
		<g transform="matrix(1 0 0 1 -170.9034 198.9439)">
<path style="stroke: none; stroke-width: 1; stroke-dasharray: none; stroke-linecap: butt; stroke-dashoffset: 0; stroke-linejoin: miter; stroke-miterlimit: 4; is-custom-font: none; font-file-url: none; fill: rgb(47,46,65); fill-rule: nonzero; opacity: 1;" transform=" translate(-401.2346, -523.7629)" d="M 386.908 524.4858 a 19.98594 19.98594 0 0 0 11.42181 3.52983 a 12.24752 12.24752 0 0 1 -4.85431 1.9971 a 40.3 40.3 0 0 0 16.46138 0.09249 a 10.65382 10.65382 0 0 0 3.446 -1.18356 a 4.361 4.361 0 0 0 2.127 -2.8447 c 0.36116 -2.06322 -1.24653 -3.9377 -2.91727 -5.201 a 21.519 21.519 0 0 0 -18.08306 -3.61349 A 9.90262 9.90262 0 0 0 389.154 520.289 a 4.87853 4.87853 0 0 0 -0.45065 5.79358 Z" stroke-linecap="round"/>
</g>
		<g transform="matrix(1 0 0 1 -170.588 202.2269)">
<path style="stroke: none; stroke-width: 1; stroke-dasharray: none; stroke-linecap: butt; stroke-dashoffset: 0; stroke-linejoin: miter; stroke-miterlimit: 4; is-custom-font: none; font-file-url: none; fill: rgb(63,61,86); fill-rule: nonzero; opacity: 1;" transform=" translate(-401.55, -527.0459)" d="M 443.29007 512.521 a 44.19385 44.19385 0 1 0 -76.36963 41.98 c 0.38965 0.5 0.81006 1 1.23 1.48 a 0.82521 0.82521 0 0 0 0.08008 0.1 a 42.15388 42.15388 0 0 0 3.29981 3.38995 c 0.2998 0.28 0.60986 0.57 0.93017 0.84 c 0.59961 0.54 1.21973 1.05 1.86963 1.54 c 0.25 0.2 0.5 0.4 0.76026 0.59 c 1.00976 0.77 2.06982 1.48 3.1499 2.17 a 0.07523 0.07523 0 0 1 0.0498 0.02 c 0.31006 0.19 0.63037 0.38 0.9502 0.56 c 0.2998 0.18 0.60986 0.36 0.91015 0.53 c 0.27979 0.15 0.54981 0.30005 0.83008 0.45 l 0.36963 0.19 c 0.86035 0.44 1.73 0.86 2.63037 1.25 c 0.09961 0.05 0.21 0.09 0.31983 0.14 c 0.08007 0.03 0.16015 0.07 0.23974 0.1 c 0.02 0.01 0.03028 0.01 0.04 0.02 c 0.41992 0.17 0.84033 0.34 1.27 0.5 a 41.34909 41.34909 0 0 0 4.30029 1.38 a 43.32755 43.32755 0 0 0 7.15967 1.29 c 1.41016 0.13 2.82031 0.2 4.24024 0.2 c 1.41015 0 2.79 -0.07 4.16992 -0.2 c 0.45019 -0.04 0.8999 -0.09 1.3501 -0.14 a 45.21049 45.21049 0 0 0 7.87988 -1.72 a 0.034 0.034 0 0 0 0.02 -0.01 a 42.14842 42.14842 0 0 0 5.55029 -2.2 c 0.00977 -0.01 0.01953 -0.01 0.02979 -0.02 c 0.3999 -0.19 0.79 -0.39 1.18994 -0.59 a 1.735 1.735 0 0 0 0.18994 -0.1 c 0.31982 -0.16 0.64014 -0.33 0.95019 -0.5 q 0.47974 -0.25506 0.92969 -0.54 c 0.32031 -0.17 0.62012 -0.36 0.93018 -0.55 q 0.24023 -0.15 0.48 -0.3 c 0.22021 -0.13 0.41992 -0.26 0.64013 -0.41 c 0.29981 -0.19 0.6001 -0.4 0.88965 -0.61 c 0.39014 -0.27 0.78028 -0.55 1.16016 -0.84 a 4.34045 4.34045 0 0 0 0.37012 -0.27 a 44.22136 44.22136 0 0 0 15.00976 -49.72 Z m -16.46972 47.79 c -0.26026 0.21 -0.53028 0.41 -0.79981 0.59 c -0.27051 0.2 -0.53027 0.39 -0.80029 0.57 c -0.23 0.16 -0.46 0.32 -0.69971 0.47 a 0.43763 0.43763 0 0 1 -0.07031 0.05 c -0.16992 0.12 -0.3501 0.23 -0.52 0.34 c -0.12012 0.06994 -0.23975 0.15 -0.35986 0.22 c -0.3501 0.22 -0.7002 0.43 -1.06006 0.63 c -0.18994 0.12 -0.39014 0.23 -0.58008 0.34 c -0.06983 0.04 -0.14014 0.08 -0.21 0.12 c -0.31006 0.17 -0.60987 0.32 -0.91016 0.48 c -0.03955 0.03 -0.08984 0.04 -0.11963 0.07 a 0.07766 0.07766 0 0 0 -0.05029 0.02 c -0.37988 0.2 -0.77 0.39 -1.15967 0.57 a 38.6113 38.6113 0 0 1 -4.63037 1.87 c -0.19971 0.07 -0.40967 0.15 -0.60986 0.21 a 41.84782 41.84782 0 0 1 -7.83008 1.68 c -0.29981 0.04 -0.60986 0.07 -0.91992 0.1 c -1.29981 0.12 -2.60987 0.18 -3.93994 0.18 c -1.18018 0 -2.37012 -0.05 -3.54 -0.15 a 41.2311 41.2311 0 0 1 -7.23975 -1.26 a 38.302 38.302 0 0 1 -5.29 -1.8 c -0.09033 -0.04 -0.18017 -0.07 -0.27 -0.11 c -0.1001 -0.04 -0.18017 -0.07 -0.27 -0.11 c -0.10009 -0.04 -0.18017 -0.08 -0.28027 -0.13 c -0.6499 -0.28 -1.29981 -0.59 -1.92969 -0.91 c -0.09033 -0.05 -0.18017 -0.09 -0.27 -0.14 l -0.3501 -0.18 c -0.21 -0.11 -0.41992 -0.22 -0.62011 -0.33 c -0.66992 -0.36 -1.33008 -0.75 -1.96973 -1.15 c -0.24023 -0.15 -0.5 -0.31 -0.74023 -0.47 l -0.18018 -0.12 c -0.56006 -0.38 -1.11963 -0.76 -1.66992 -1.17 c -0.37012 -0.28 -0.75 -0.55 -1.10986 -0.84 c -0.60987 -0.46 -1.2002 -0.95 -1.77 -1.46 c -0.3003 -0.25 -0.6001 -0.53 -0.87989 -0.79 a 39.67486 39.67486 0 0 1 -3.18994 -3.3 c -0.33008 -0.37994 -0.66015 -0.76 -0.97021 -1.16 c -0.06983 -0.08 -0.12989 -0.16 -0.2002 -0.25 a 41.77848 41.77848 0 1 1 58.01026 7.32 Z" stroke-linecap="round"/>
</g>
		<g transform="matrix(1 0 0 1 -107.5669 91.1132)">
<path style="stroke: none; stroke-width: 1; stroke-dasharray: none; stroke-linecap: butt; stroke-dashoffset: 0; stroke-linejoin: miter; stroke-miterlimit: 4; is-custom-font: none; font-file-url: none; fill: rgb(63,61,86); fill-rule: nonzero; opacity: 1;" transform=" translate(-464.5712, -415.9322)" d="M 475.48406 296.60823 a 103.86271 103.86271 0 1 0 5.88861 153.38883 l 127.40025 107.4997 A 9.571 9.571 0 0 0 621.13149 542.879 l -0.01409 -0.01188 L 493.71711 435.36737 A 103.86855 103.86855 0 0 0 475.48406 296.60823 Z m -8.213 128.40762 a 77.81462 77.81462 0 1 1 -9.28981 -109.65368 l 0 0 A 77.81462 77.81462 0 0 1 467.27106 425.01585 Z" stroke-linecap="round"/>
</g>
		<g transform="matrix(1 0 0 1 -179.7833 71.2314)">
<path style="stroke: none; stroke-width: 1; stroke-dasharray: none; stroke-linecap: butt; stroke-dashoffset: 0; stroke-linejoin: miter; stroke-miterlimit: 4; is-custom-font: none; font-file-url: none; fill: rgb(0,0,0); fill-rule: nonzero; opacity: 0.3;" transform=" translate(-392.3547, -396.0504)" d="M 357.61735 434.30569 A 77.81885 77.81885 0 0 1 344.41288 329.6974 q -2.23174 2.24755 -4.315 4.70769 A 77.81463 77.81463 0 1 0 459.04139 434.769 q 2.07849 -2.46329 3.91466 -5.04544 A 77.81872 77.81872 0 0 1 357.61735 434.30569 Z" stroke-linecap="round"/>
</g>
		<g transform="matrix(1 0 0 1 139.7851 183.0859)">
<path style="stroke: none; stroke-width: 1; stroke-dasharray: none; stroke-linecap: butt; stroke-dashoffset: 0; stroke-linejoin: miter; stroke-miterlimit: 4; is-custom-font: none; font-file-url: none; fill: rgb(255,182,182); fill-rule: nonzero; opacity: 1;" transform=" translate(-711.9231, -507.9049)" d="M 732.32268 561.51575 a 10.74269 10.74269 0 0 0 -3.06875 -16.18426 l -23.222 -95.04913 l -16.94052 5.40781 l 25.07572 94.40044 a 10.8009 10.8009 0 0 0 18.15552 11.42514 Z" stroke-linecap="round"/>
</g>
		<g transform="matrix(1 0 0 1 128.792 163.005)">
<polygon style="stroke: none; stroke-width: 1; stroke-dasharray: none; stroke-linecap: butt; stroke-dashoffset: 0; stroke-linejoin: miter; stroke-miterlimit: 4; is-custom-font: none; font-file-url: none; fill: rgb(63,61,86); fill-rule: nonzero; opacity: 1;" points="19.39,12.894 7.01,23.574 -10.31,38.505 -17.96,-0.635 -18.76,-4.705 -19.39,-7.935 -1.84,-38.505 12.79,-37.666 13.79,-37.606 13.81,-37.385 14.04,-35.335 17.04,-8.356 17.11,-7.705 19.39,12.894 "/>
</g>
		<g transform="matrix(1 0 0 1 58.2185 417.9295)">
<polygon style="stroke: none; stroke-width: 1; stroke-dasharray: none; stroke-linecap: butt; stroke-dashoffset: 0; stroke-linejoin: miter; stroke-miterlimit: 4; is-custom-font: none; font-file-url: none; fill: rgb(255,182,182); fill-rule: nonzero; opacity: 1;" points="9.0445,23.6445 -3.2145,23.6435 -9.0475,-23.6445 9.0475,-23.6435 9.0445,23.6445 "/>
</g>
		<g transform="matrix(1 0 0 1 50.625 445.514)">
<path style="stroke: none; stroke-width: 1; stroke-dasharray: none; stroke-linecap: butt; stroke-dashoffset: 0; stroke-linejoin: miter; stroke-miterlimit: 4; is-custom-font: none; font-file-url: none; fill: rgb(47,46,65); fill-rule: nonzero; opacity: 1;" transform=" translate(-622.7631, -770.333)" d="M 642.5281 778.27684 l -39.53077 -0.00147 v -0.5 a 15.38731 15.38731 0 0 1 15.38648 -15.38623 h 0.001 l 24.144 0.001 Z" stroke-linecap="round"/>
</g>
		<g transform="matrix(1 0 0 1 186.2185 418.9295)">
<polygon style="stroke: none; stroke-width: 1; stroke-dasharray: none; stroke-linecap: butt; stroke-dashoffset: 0; stroke-linejoin: miter; stroke-miterlimit: 4; is-custom-font: none; font-file-url: none; fill: rgb(255,182,182); fill-rule: nonzero; opacity: 1;" points="9.0445,23.6445 -3.2145,23.6435 -9.0475,-23.6445 9.0475,-23.6435 9.0445,23.6445 "/>
</g>
		<g transform="matrix(1 0 0 1 178.625 446.514)">
<path style="stroke: none; stroke-width: 1; stroke-dasharray: none; stroke-linecap: butt; stroke-dashoffset: 0; stroke-linejoin: miter; stroke-miterlimit: 4; is-custom-font: none; font-file-url: none; fill: rgb(47,46,65); fill-rule: nonzero; opacity: 1;" transform=" translate(-750.7631, -771.333)" d="M 770.5281 779.27684 l -39.53077 -0.00147 v -0.5 a 15.38731 15.38731 0 0 1 15.38648 -15.38623 h 0.001 l 24.144 0.001 Z" stroke-linecap="round"/>
</g>
		<g transform="matrix(1 0 0 1 120.5621 275.4995)">
<path style="stroke: none; stroke-width: 1; stroke-dasharray: none; stroke-linecap: butt; stroke-dashoffset: 0; stroke-linejoin: miter; stroke-miterlimit: 4; is-custom-font: none; font-file-url: none; fill: rgb(47,46,65); fill-rule: nonzero; opacity: 1;" transform=" translate(-692.7001, -600.3185)" d="M 777.20009 748.56853 l -33 5 l -48.00977 -162.48 l -50.99023 163.48 l -37 -5 l 48 -190 v -15 l 6.5 -22.5 l -0.68018 -6.09 l -4.73 -42.59 l -2.0498 -18.47 l -0.13286 -1.19314 a 4.05551 4.05551 0 0 1 3.19291 -4.41685 h 0 l 15.3999 -3.24 H 698.87 l 14.8501 4.09 l 1.02 0.28 l 0.46 0.13 l -0.23 1.92 l -3.48 29.18 l -0.18994 1.6 l -3.36011 28.13 l -0.74 6.17 c 29 21 30 42 30 42 Z" stroke-linecap="round"/>
</g>
		<g transform="matrix(1 0 0 1 111.1053 84.0369)">
<circle style="stroke: none; stroke-width: 1; stroke-dasharray: none; stroke-linecap: butt; stroke-dashoffset: 0; stroke-linejoin: miter; stroke-miterlimit: 4; is-custom-font: none; font-file-url: none; fill: rgb(255,182,182); fill-rule: nonzero; opacity: 1;" cx="0" cy="0" r="24.56103"/>
</g>
		<g transform="matrix(0.9916 -0.1297 0.1297 0.9916 113.0627 193.753)">
<rect style="stroke: none; stroke-width: 1; stroke-dasharray: none; stroke-linecap: butt; stroke-dashoffset: 0; stroke-linejoin: miter; stroke-miterlimit: 4; is-custom-font: none; font-file-url: none; fill: rgb(63,61,86); fill-rule: nonzero; opacity: 1;" x="-24.5" y="-3.5" rx="0" ry="0" width="49" height="7"/>
</g>
		<g transform="matrix(1 0 0 1 50.4713 193.8078)">
<path style="stroke: none; stroke-width: 1; stroke-dasharray: none; stroke-linecap: butt; stroke-dashoffset: 0; stroke-linejoin: miter; stroke-miterlimit: 4; is-custom-font: none; font-file-url: none; fill: rgb(255,182,182); fill-rule: nonzero; opacity: 1;" transform=" translate(-622.6094, -518.6268)" d="M 595.28248 520.3709 a 10.52714 10.52714 0 0 1 1.31644 1.00712 l 48.05634 -12.25059 l 3.2784 -11.59339 l 18.14314 2.66086 l -3.8092 21.08784 a 8 8 0 0 1 -7.03475 6.53393 l -56.11128 5.90907 a 10.4971 10.4971 0 1 1 -3.83909 -13.35484 Z" stroke-linecap="round"/>
</g>
		<g transform="matrix(1 0 0 1 84.8121 159.6602)">
<path style="stroke: none; stroke-width: 1; stroke-dasharray: none; stroke-linecap: butt; stroke-dashoffset: 0; stroke-linejoin: miter; stroke-miterlimit: 4; is-custom-font: none; font-file-url: none; fill: rgb(63,61,86); fill-rule: nonzero; opacity: 1;" transform=" translate(-656.9501, -484.4792)" d="M 669.20009 455.56853 l -8.5 -6.5 c -2.29816 -0.87172 -5.44731 1.605 -6 4 l -12 49 l 25 18 l 3.5 -5.5 Z" stroke-linecap="round"/>
</g>
		<g transform="matrix(1 0 0 1 118.3984 140.5296)">
<path style="stroke: none; stroke-width: 1; stroke-dasharray: none; stroke-linecap: butt; stroke-dashoffset: 0; stroke-linejoin: miter; stroke-miterlimit: 4; is-custom-font: none; font-file-url: none; fill: rgb(0,0,0); fill-rule: nonzero; opacity: 0.2;" transform=" translate(-690.5364, -465.3487)" d="M 717.97011 479.46849 a 67.67916 67.67916 0 0 1 -6.48 2.2 c -0.7 0.21 -1.41992 0.41 -2.12988 0.6 a 66.01864 66.01864 0 0 1 -14.34034 2.32 a 45.13975 45.13975 0 0 1 -6.25976 -0.17 a 35.24268 35.24268 0 0 1 -6.58985 -1.3 c -0.07031 -0.02 -0.15039 -0.04 -0.22021 -0.06 a 28.90627 28.90627 0 0 1 -11.9502 -6.79 a 23.56071 23.56071 0 0 1 -2.10986 -2.35 a 21.23882 21.23882 0 0 1 -4.56006 -16.53 a 14.15553 14.15553 0 0 1 0.34033 -1.57 a 25.10846 25.10846 0 0 1 1.48975 -4.1 c 0.27 -0.62 0.57031 -1.23 0.89014 -1.82995 l 11.2998 -3.82 h 21.52 l 14.8501 4.09 l 1 0.06 l 0.02 0.22 l 0.46 0.13 l -0.23 1.92 Z" stroke-linecap="round"/>
</g>
		<g transform="matrix(1 0 0 1 121.9532 101.7611)">
<path style="stroke: none; stroke-width: 1; stroke-dasharray: none; stroke-linecap: butt; stroke-dashoffset: 0; stroke-linejoin: miter; stroke-miterlimit: 4; is-custom-font: none; font-file-url: none; fill: rgb(47,46,65); fill-rule: nonzero; opacity: 1;" transform=" translate(-694.0913, -426.58)" d="M 664.423 388.52194 c -4.59329 -0.563 -9.634 -0.16485 -13.21412 2.76739 s -4.73557 9.0278 -1.34592 12.17828 c 3.00083 2.7891 7.6933 2.13322 11.71262 2.92632 a 15.85418 15.85418 0 0 1 12.38363 15.15657 c -0.05982 10.17413 -9.8241 17.87895 -11.578 27.90093 c -1.197 6.83982 1.68772 14.03819 6.675 18.86966 s 11.84324 7.44255 18.7509 8.1498 s 13.8926 -0.373 20.60576 -2.14766 c 6.74127 -1.78215 13.3778 -4.31055 19.03424 -8.388 s 10.2931 -9.82559 12.10927 -16.55777 s 0.51227 -14.45089 -4.16774 -19.61986 c -5.359 -5.919 -14.27435 -7.95446 -18.90988 -14.45565 c -5.1964 -7.28778 -3.27353 -17.66625 -7.47921 -25.5673 c -2.80791 -5.27514 -8.12457 -8.87315 -13.79191 -10.76858 s -11.719 -2.26953 -17.69211 -2.4531 c -3.13957 -0.09649 -6.37528 -0.12863 -9.30036 1.016 s -5.49633 3.75316 -5.648 6.89055 S 664.423 388.52194 664.423 388.52194 Z" stroke-linecap="round"/>
</g>
		<g transform="matrix(1 0 0 1 131.724 453.862)">
<path style="stroke: none; stroke-width: 1; stroke-dasharray: none; stroke-linecap: butt; stroke-dashoffset: 0; stroke-linejoin: miter; stroke-miterlimit: 4; is-custom-font: none; font-file-url: none; fill: rgb(202,202,202); fill-rule: nonzero; opacity: 1;" transform=" translate(-703.862, -778.681)" d="M 894.362 779.681 h -381 a 1 1 0 0 1 0 -2 h 381 a 1 1 0 0 1 0 2 Z" stroke-linecap="round"/>
</g>
</g>
</g>
</svg>